<?xml version="1.0" encoding="UTF-8"?>
<!DOCTYPE svg PUBLIC "-//W3C//DTD SVG 1.1//EN" "http://www.w3.org/Graphics/SVG/1.1/DTD/svg11.dtd">
<!-- Creator: CorelDRAW X7 -->
<svg xmlns="http://www.w3.org/2000/svg" xml:space="preserve" width="4.79506in" height="0.77128in" version="1.1" style="shape-rendering:geometricPrecision; text-rendering:geometricPrecision; image-rendering:optimizeQuality; fill-rule:evenodd; clip-rule:evenodd"
viewBox="0 0 4589 738"
 xmlns:xlink="http://www.w3.org/1999/xlink">
 <defs>
  <style type="text/css">
   <![CDATA[
    .fil1 {fill:#0EE6D8}
    .fil0 {fill:white}
    .fil2 {fill:white;fill-rule:nonzero}
   ]]>
  </style>
 </defs>
 <g id="Layer_x0020_1">
  <metadata id="CorelCorpID_0Corel-Layer"/>
  <g id="_333863320">
   <polygon class="fil0" points="171,0 345,0 345,540 171,540 "/>
   <polygon class="fil0" points="540,171 540,345 0,345 0,171 "/>
   <polygon class="fil0" points="527,548 527,711 353,711 353,548 "/>
   <polygon class="fil1" points="345,547 345,710 171,710 171,547 "/>
   <path class="fil2" d="M913 729l0 -499 -165 0 0 -55 397 0 0 55 -165 0 0 499 -67 0zm314 0l0 -554 343 0 0 55 -276 0 0 193 252 0 0 53 -252 0 0 198 276 0 0 55 -343 0zm688 9c-54,0 -101,-12 -140,-36 -39,-24 -69,-57 -91,-100 -21,-43 -31,-93 -31,-150 0,-57 10,-107 31,-150 22,-43 52,-77 91,-101 39,-24 86,-36 140,-36 63,0 114,15 154,46 39,30 65,72 76,127l-74 0c-8,-34 -25,-62 -51,-83 -26,-21 -61,-31 -105,-31 -40,0 -74,9 -103,27 -29,18 -52,45 -67,79 -16,34 -24,74 -24,122 0,47 8,88 24,122 15,34 38,60 67,78 29,19 63,28 103,28 44,0 79,-11 105,-31 26,-20 43,-47 51,-81l74 0c-11,53 -37,95 -76,125 -40,30 -91,45 -154,45zm680 -9l0 -554 66 0 0 554 -66 0zm-354 0l0 -554 67 0 0 554 -67 0zm54 -255l0 -55 317 0 0 55 -317 0zm485 255l0 -554 66 0 0 554 -66 0zm180 0l0 -554 367 0 0 96 -249 -1 0 135 196 0 0 93 -196 0 0 231 -118 0zm444 0l1 -554 119 0 0 554 -120 0zm476 9c-55,0 -103,-12 -143,-36 -41,-24 -71,-57 -93,-100 -21,-43 -32,-93 -32,-149 0,-57 10,-107 32,-150 21,-42 52,-76 93,-101 40,-24 88,-37 143,-37 68,0 124,18 168,52 44,34 71,82 81,145l-130 0c-6,-28 -20,-50 -40,-66 -21,-15 -47,-23 -79,-23 -32,0 -59,7 -80,22 -22,15 -38,36 -50,62 -11,27 -17,59 -17,96 0,37 6,68 17,95 11,27 27,47 49,62 22,14 49,21 81,21 32,0 58,-7 79,-21 20,-14 34,-34 40,-60l130 0c-11,58 -38,104 -81,138 -44,33 -100,50 -168,50zm338 -9l0 -554 370 0 1 96 -252 -1 0 131 228 0 0 92 -228 0 0 140 251 1 1 95 -371 0z"/>
  </g>
 </g>
</svg>
